<svg width="25" height="28" viewBox="0 0 25 28" fill="none" xmlns="http://www.w3.org/2000/svg">
<path d="M13.5382 27.6938L13.1815 23.5907H12.8248C9.44818 23.5907 6.58281 22.4624 4.22869 20.2057C1.87457 17.949 0.69751 15.2022 0.69751 11.9653C0.69751 8.72836 1.87457 5.98156 4.22869 3.72485C6.58281 1.46814 9.44818 0.339783 12.8248 0.339783C14.5131 0.339783 16.0882 0.641589 17.5502 1.2452C19.013 1.84973 20.2976 2.68175 21.4038 3.74126C22.509 4.80168 23.3765 6.03262 24.0062 7.43406C24.6368 8.83641 24.9521 10.3468 24.9521 11.9653C24.9521 13.6749 24.661 15.3161 24.0789 16.889C23.4959 18.4618 22.6993 19.9207 21.6891 21.2656C20.678 22.6105 19.4772 23.8301 18.0866 24.9242C16.6951 26.0184 15.1789 26.9416 13.5382 27.6938ZM16.3916 22.7017C18.08 21.334 19.453 19.7329 20.5106 17.8983C21.5693 16.0629 22.0986 14.0852 22.0986 11.9653C22.0986 9.48059 21.2012 7.37752 19.4064 5.65604C17.6106 3.93547 15.4167 3.07519 12.8248 3.07519C10.2329 3.07519 8.03951 3.93547 6.24467 5.65604C4.44888 7.37752 3.55099 9.48059 3.55099 11.9653C3.55099 14.4499 4.44888 16.553 6.24467 18.2745C8.03951 19.995 10.2329 20.8553 12.8248 20.8553H16.3916V22.7017ZM12.7891 19.4534C13.1934 19.4534 13.5382 19.3167 13.8235 19.0431C14.1089 18.7696 14.2515 18.439 14.2515 18.0515C14.2515 17.664 14.1089 17.3335 13.8235 17.0599C13.5382 16.7864 13.1934 16.6496 12.7891 16.6496C12.3849 16.6496 12.0401 16.7864 11.7547 17.0599C11.4694 17.3335 11.3267 17.664 11.3267 18.0515C11.3267 18.439 11.4694 18.7696 11.7547 19.0431C12.0401 19.3167 12.3849 19.4534 12.7891 19.4534ZM11.7547 15.111H13.8949C13.8949 14.4271 13.9662 13.9484 14.1089 13.6749C14.2515 13.4013 14.7033 12.8999 15.4643 12.1704C15.8923 11.7601 16.249 11.3156 16.5343 10.8369C16.8197 10.3582 16.9623 9.84532 16.9623 9.29823C16.9623 8.13569 16.5524 7.26355 15.7325 6.68182C14.9116 6.101 13.9424 5.81059 12.8248 5.81059C11.7785 5.81059 10.8987 6.0896 10.1853 6.64763C9.47196 7.20656 8.9726 7.88494 8.68725 8.68277L10.6847 9.435C10.8036 9.04749 11.0295 8.66544 11.3624 8.28887C11.6953 7.91321 12.1828 7.72538 12.8248 7.72538C13.4668 7.72538 13.9486 7.89634 14.2701 8.23827C14.5906 8.58019 14.7509 8.95631 14.7509 9.36662C14.7509 9.75414 14.632 10.1015 14.3942 10.4088C14.1564 10.717 13.8711 11.0307 13.5382 11.3498C12.7059 12.0336 12.2008 12.5748 12.023 12.9733C11.8442 13.3726 11.7547 14.0852 11.7547 15.111Z" fill="#ADADAD"/>
</svg>
