<svg width="28" height="28" viewBox="0 0 28 28" fill="none" xmlns="http://www.w3.org/2000/svg">
<path d="M10.332 27.3333L9.79863 23.0666C9.50974 22.9555 9.23774 22.8222 8.98263 22.6666C8.72663 22.5111 8.47641 22.3444 8.23197 22.1666L4.2653 23.8333L0.598633 17.5L4.03197 14.9C4.00974 14.7444 3.99863 14.5942 3.99863 14.4493V13.5493C3.99863 13.4053 4.00974 13.2555 4.03197 13.1L0.598633 10.5L4.2653 4.16663L8.23197 5.83329C8.47641 5.65551 8.73197 5.48885 8.99863 5.33329C9.2653 5.17774 9.53197 5.0444 9.79863 4.93329L10.332 0.666626H17.6653L18.1986 4.93329C18.4875 5.0444 18.76 5.17774 19.016 5.33329C19.2711 5.48885 19.5209 5.65551 19.7653 5.83329L23.732 4.16663L27.3986 10.5L23.9653 13.1C23.9875 13.2555 23.9986 13.4053 23.9986 13.5493V14.4493C23.9986 14.5942 23.9764 14.7444 23.932 14.9L27.3653 17.5L23.6986 23.8333L19.7653 22.1666C19.5209 22.3444 19.2653 22.5111 18.9986 22.6666C18.732 22.8222 18.4653 22.9555 18.1986 23.0666L17.6653 27.3333H10.332ZM14.0653 18.6666C15.3542 18.6666 16.4542 18.2111 17.3653 17.3C18.2764 16.3888 18.732 15.2888 18.732 14C18.732 12.7111 18.2764 11.6111 17.3653 10.7C16.4542 9.78885 15.3542 9.33329 14.0653 9.33329C12.7542 9.33329 11.6484 9.78885 10.748 10.7C9.84841 11.6111 9.39863 12.7111 9.39863 14C9.39863 15.2888 9.84841 16.3888 10.748 17.3C11.6484 18.2111 12.7542 18.6666 14.0653 18.6666ZM14.0653 16C13.5097 16 13.0377 15.8053 12.6493 15.416C12.26 15.0275 12.0653 14.5555 12.0653 14C12.0653 13.4444 12.26 12.9724 12.6493 12.584C13.0377 12.1946 13.5097 12 14.0653 12C14.6209 12 15.0933 12.1946 15.4826 12.584C15.8711 12.9724 16.0653 13.4444 16.0653 14C16.0653 14.5555 15.8711 15.0275 15.4826 15.416C15.0933 15.8053 14.6209 16 14.0653 16ZM12.6653 24.6666H15.2986L15.7653 21.1333C16.4542 20.9555 17.0933 20.6942 17.6826 20.3493C18.2711 20.0053 18.8097 19.5888 19.2986 19.1L22.5986 20.4666L23.8986 18.2L21.032 16.0333C21.1431 15.7222 21.2209 15.3942 21.2653 15.0493C21.3097 14.7053 21.332 14.3555 21.332 14C21.332 13.6444 21.3097 13.2942 21.2653 12.9493C21.2209 12.6053 21.1431 12.2777 21.032 11.9666L23.8986 9.79996L22.5986 7.53329L19.2986 8.93329C18.8097 8.42218 18.2711 7.99418 17.6826 7.64929C17.0933 7.30529 16.4542 7.0444 15.7653 6.86663L15.332 3.33329H12.6986L12.232 6.86663C11.5431 7.0444 10.9044 7.30529 10.316 7.64929C9.72663 7.99418 9.18752 8.41107 8.69863 8.89996L5.39863 7.53329L4.09863 9.79996L6.9653 11.9333C6.85419 12.2666 6.77641 12.6 6.73197 12.9333C6.68752 13.2666 6.6653 13.6222 6.6653 14C6.6653 14.3555 6.68752 14.7 6.73197 15.0333C6.77641 15.3666 6.85419 15.7 6.9653 16.0333L4.09863 18.2L5.39863 20.4666L8.69863 19.0666C9.18752 19.5777 9.72663 20.0053 10.316 20.3493C10.9044 20.6942 11.5431 20.9555 12.232 21.1333L12.6653 24.6666Z" fill="#ADADAD"/>
</svg>
